
<svg xmlns="http://www.w3.org/2000/svg" xmlns:xlink="http://www.w3.org/1999/xlink" width="15px" height="15px" viewBox="0 0 15 15" version="1.1">
<g id="surface1">
<path style=" stroke:none;fill-rule:nonzero;fill:rgb(0%,0%,0%);fill-opacity:1;" d="M 0.113281 1.609375 C 0.308594 1.199219 0.71875 0.9375 1.171875 0.9375 L 13.828125 0.9375 C 14.28125 0.9375 14.691406 1.199219 14.886719 1.609375 C 15.078125 2.019531 15.019531 2.5 14.734375 2.851562 L 9.375 9.402344 L 9.375 13.125 C 9.375 13.480469 9.175781 13.804688 8.855469 13.960938 C 8.539062 14.121094 8.160156 14.089844 7.875 13.875 L 6 12.46875 C 5.761719 12.292969 5.625 12.015625 5.625 11.71875 L 5.625 9.402344 L 0.265625 2.851562 C -0.0195312 2.5 -0.0820312 2.015625 0.113281 1.609375 Z M 0.113281 1.609375 "/>
</g>
</svg>
