<?xml version="1.0" encoding="UTF-8"?>
<svg xmlns="http://www.w3.org/2000/svg" xmlns:xlink="http://www.w3.org/1999/xlink" width="16px" height="14px" viewBox="0 0 15 14" version="1.1">
<g id="surface1">
<path style=" stroke:none;fill-rule:nonzero;fill:rgb(204,204,206);fill-opacity:1;" d="M 8.253906 0.492188 C 8.113281 0.191406 7.824219 0 7.503906 0 C 7.183594 0 6.894531 0.191406 6.753906 0.492188 L 5.078125 4.109375 L 1.339844 4.6875 C 1.027344 4.738281 0.765625 4.96875 0.667969 5.28125 C 0.574219 5.597656 0.652344 5.945312 0.875 6.175781 L 3.589844 8.996094 L 2.949219 12.980469 C 2.894531 13.308594 3.027344 13.640625 3.285156 13.835938 C 3.542969 14.03125 3.882812 14.054688 4.164062 13.898438 L 7.503906 12.027344 L 10.847656 13.898438 C 11.128906 14.054688 11.46875 14.03125 11.726562 13.835938 C 11.984375 13.640625 12.113281 13.308594 12.0625 12.980469 L 11.417969 8.996094 L 14.132812 6.175781 C 14.355469 5.945312 14.4375 5.597656 14.339844 5.28125 C 14.238281 4.96875 13.980469 4.738281 13.667969 4.6875 L 9.925781 4.109375 Z M 8.253906 0.492188 "/>
</g>
</svg>
